<!-- icon666.com - MILLIONS vector ICONS FREE --><svg id="Layer_1" viewBox="0 0 64 64" xmlns="http://www.w3.org/2000/svg" data-name="Layer 1"><path d="m19.265 9.899h5.652v2.156h-5.652z"></path><path d="m38.105 9.899h5.651v2.156h-5.651z"></path><path d="m52.706 59.081h-42.391a5.41 5.41 0 0 1 -5.315-5.487v-38.208a5.41 5.41 0 0 1 5.315-5.486h5.185v2.157h-5.185a3.252 3.252 0 0 0 -3.16 3.33v38.207a3.252 3.252 0 0 0 3.16 3.33h42.391a3.253 3.253 0 0 0 3.161-3.33v-38.208a3.253 3.253 0 0 0 -3.161-3.33h-5.181v-2.156h5.181a5.41 5.41 0 0 1 5.317 5.487v38.207a5.41 5.41 0 0 1 -5.317 5.487z"></path><path d="m28.685 9.899h5.652v2.156h-5.652z"></path><path d="m6.077 20.676h50.868v2.156h-50.868z"></path><path d="m19.265 17.934h-3.765a1.078 1.078 0 0 1 -1.078-1.079v-10.776a1.078 1.078 0 0 1 1.078-1.079h3.768a1.078 1.078 0 0 1 1.078 1.078v10.777a1.079 1.079 0 0 1 -1.081 1.079zm-2.69-2.157h1.612v-8.62h-1.612z"></path><path d="m28.685 17.934h-3.768a1.078 1.078 0 0 1 -1.078-1.079v-10.776a1.078 1.078 0 0 1 1.078-1.079h3.768a1.078 1.078 0 0 1 1.078 1.078v10.777a1.079 1.079 0 0 1 -1.078 1.079zm-2.685-2.157h1.611v-8.62h-1.611z"></path><path d="m38.1 17.934h-3.763a1.078 1.078 0 0 1 -1.078-1.079v-10.776a1.078 1.078 0 0 1 1.078-1.079h3.763a1.079 1.079 0 0 1 1.079 1.078v10.777a1.079 1.079 0 0 1 -1.079 1.079zm-2.69-2.157h1.612v-8.62h-1.607z"></path><path d="m47.525 17.934h-3.768a1.078 1.078 0 0 1 -1.078-1.079v-10.776a1.078 1.078 0 0 1 1.078-1.079h3.768a1.079 1.079 0 0 1 1.075 1.079v10.776a1.079 1.079 0 0 1 -1.075 1.079zm-2.69-2.157h1.612v-8.62h-1.612z"></path><path d="m17.381 32.629h-6.594a1.078 1.078 0 0 1 -1.078-1.078v-5.878a1.078 1.078 0 0 1 1.078-1.073h6.594a1.078 1.078 0 0 1 1.078 1.078v5.878a1.078 1.078 0 0 1 -1.078 1.073zm-5.516-2.156h4.435v-3.722h-4.435z"></path><path d="m17.381 42.426h-6.594a1.078 1.078 0 0 1 -1.078-1.078v-5.878a1.078 1.078 0 0 1 1.078-1.078h6.594a1.078 1.078 0 0 1 1.078 1.078v5.878a1.078 1.078 0 0 1 -1.078 1.078zm-5.516-2.156h4.435v-3.722h-4.435z"></path><path d="m17.381 52.223h-6.594a1.078 1.078 0 0 1 -1.078-1.078v-5.878a1.078 1.078 0 0 1 1.078-1.079h6.594a1.078 1.078 0 0 1 1.078 1.079v5.878a1.078 1.078 0 0 1 -1.078 1.078zm-5.516-2.157h4.435v-3.721h-4.435z"></path><path d="m28.685 32.629h-6.594a1.078 1.078 0 0 1 -1.078-1.078v-5.878a1.078 1.078 0 0 1 1.078-1.073h6.594a1.078 1.078 0 0 1 1.078 1.078v5.878a1.078 1.078 0 0 1 -1.078 1.073zm-5.516-2.156h4.437v-3.722h-4.437z"></path><path d="m28.685 42.426h-6.594a1.078 1.078 0 0 1 -1.078-1.078v-5.878a1.078 1.078 0 0 1 1.078-1.078h6.594a1.078 1.078 0 0 1 1.078 1.078v5.878a1.078 1.078 0 0 1 -1.078 1.078zm-5.516-2.156h4.437v-3.722h-4.437z"></path><path d="m28.685 52.223h-6.594a1.078 1.078 0 0 1 -1.078-1.078v-5.878a1.078 1.078 0 0 1 1.078-1.079h6.594a1.079 1.079 0 0 1 1.078 1.079v5.878a1.078 1.078 0 0 1 -1.078 1.078zm-5.516-2.157h4.437v-3.721h-4.437z"></path><path d="m39.989 32.629h-6.589a1.079 1.079 0 0 1 -1.079-1.078v-5.878a1.079 1.079 0 0 1 1.079-1.073h6.593a1.078 1.078 0 0 1 1.078 1.078v5.878a1.078 1.078 0 0 1 -1.082 1.073zm-5.515-2.156h4.437v-3.722h-4.437z"></path><path d="m39.989 42.426h-6.589a1.079 1.079 0 0 1 -1.079-1.078v-5.878a1.079 1.079 0 0 1 1.079-1.078h6.593a1.078 1.078 0 0 1 1.078 1.078v5.878a1.078 1.078 0 0 1 -1.082 1.078zm-5.515-2.156h4.437v-3.722h-4.437z"></path><path d="m39.989 52.223h-6.589a1.079 1.079 0 0 1 -1.079-1.078v-5.878a1.079 1.079 0 0 1 1.079-1.079h6.593a1.078 1.078 0 0 1 1.078 1.079v5.878a1.078 1.078 0 0 1 -1.082 1.078zm-5.515-2.157h4.437v-3.721h-4.437z"></path><path d="m51.293 32.629h-6.593a1.078 1.078 0 0 1 -1.078-1.078v-5.878a1.078 1.078 0 0 1 1.078-1.073h6.594a1.078 1.078 0 0 1 1.078 1.078v5.878a1.078 1.078 0 0 1 -1.079 1.073zm-5.516-2.156h4.438v-3.722h-4.438z"></path><path d="m51.293 42.426h-6.593a1.078 1.078 0 0 1 -1.078-1.078v-5.878a1.078 1.078 0 0 1 1.078-1.078h6.594a1.078 1.078 0 0 1 1.078 1.078v5.878a1.078 1.078 0 0 1 -1.079 1.078zm-5.516-2.156h4.438v-3.722h-4.438z"></path><path d="m51.293 52.223h-6.593a1.078 1.078 0 0 1 -1.078-1.078v-5.878a1.079 1.079 0 0 1 1.078-1.079h6.594a1.078 1.078 0 0 1 1.078 1.079v5.878a1.078 1.078 0 0 1 -1.079 1.078zm-5.516-2.157h4.438v-3.721h-4.438z"></path></svg>