<svg width="32" height="36" viewBox="0 0 32 36" fill="none" xmlns="http://www.w3.org/2000/svg">
<path d="M16 26.75C22.4085 26.75 28.0137 29.5062 31.0622 33.6187L27.8387 35.143C25.3572 32.203 20.9822 30.25 16 30.25C11.0177 30.25 6.6427 32.203 4.1612 35.143L0.939453 33.617C3.98795 29.5045 9.59145 26.75 16 26.75ZM16 0.5C18.3206 0.5 20.5462 1.42187 22.1871 3.06282C23.8281 4.70376 24.75 6.92936 24.75 9.25V14.5C24.75 16.8206 23.8281 19.0462 22.1871 20.6872C20.5462 22.3281 18.3206 23.25 16 23.25C13.6793 23.25 11.4537 22.3281 9.81277 20.6872C8.17183 19.0462 7.24995 16.8206 7.24995 14.5V9.25C7.24995 6.92936 8.17183 4.70376 9.81277 3.06282C11.4537 1.42187 13.6793 0.5 16 0.5Z" fill="#2755A5"/>
</svg>
